<svg class="fish" xmlns="http://www.w3.org/2000/svg" xmlns:xlink="http://www.w3.org/1999/xlink" width="281" height="215">
  <defs>
    <path id="h3N86MrFj" d="M97.16 174.8c.69 4.88.15 9.85.26 14.78.13 5.54 1.16 10.73 5.08 14.92 5.39 5.77 14.57 8.31 22.26 6 10.22-3.08 12.47-13.43 11.48-22.99-1.07-10.42-21.23-20.5-27.47-28.71"/>
    <path id="h2dXxjW83a" d="M95.67 174.8c1.29 12.53-2.37 26.68 10.35 34.45 8.56 5.23 21.63 5.24 27.97-3.47 5.09-7 5.72-18.51.6-25.57-6.62-9.14-17.68-13.79-24.76-22.46-1.22-1.49-3.32.63-2.11 2.11 9.73 11.91 29.62 17.49 26.92 35.87-1.85 12.6-14.51 17.33-25.49 11.85-13.05-6.53-9.28-20.95-10.5-32.78-.19-1.89-3.18-1.91-2.98 0"/>
    <path id="aSzjulU7j" d="M275.72 70.31c2.71-5.56 4.74-13.66-.62-16.78-8.18-4.72-33.13 26.03-32.5 26.73-28.01-31.34-44.41-49.29-75.71-61.5-9.59-3.73-19.77-5.88-30.04-6.44-3.47-.48-6.94-.81-10.39-.98C90.03 9.45 58 32.69 46.06 40.23 34.13 47.77 1.46 91.74.21 94.25c0 0-.63 5.66 8.79 13.19 9.42 7.54 13.19 6.91 9.42 13.19C14.65 126.92.82 130.68.2 135.71c-.62 5.02.01 5.02 5.03 6.28 5.03 1.26 28.9 26.77 59.68 37.26 30.77 10.48 64.33 10.48 84.3 7.34 1.58-.25 3.14-.56 4.7-.91 7.1-1.06 14.2-2.59 18.99-4.7 9.03-3.41 16.63-7.19 19.7-8.78.94.26 1.82.63 2.66 1.06 1.21 1.8 3.17 4.57 5.12 6.66 4.38 4.7 12.04 4.93 17.89 2.28 4.43-1.99 10.88-9.62 12.43-14.5 1.25-3.93 1.3-2.95-.51-5.93-.3-.51-8.6-5.09-8.47-5.17 8.26-8.8 19.73-23 19.73-23 5.96 9.16 17.06 27.21 24.78 27.52 9.94.4 10.91-10.71 9.19-17.78-6.83-27.98-12.9-45.93.3-73.03"/>
    <path id="bdTdUdNZP" d="M275.1 53.53c-8.18-4.72-33.13 26.03-32.5 26.73-28.01-31.34-44.41-49.29-75.71-61.5-9.59-3.73-19.77-5.88-30.04-6.44-3.47-.48-6.94-.81-10.39-.98C90.03 9.45 58 32.69 46.06 40.23 34.13 47.77 1.46 91.74.21 94.25c0 0-.63 5.66 8.79 13.19 9.42 7.54 13.19 6.91 9.42 13.19C14.65 126.92.82 130.68.2 135.71c-.62 5.02.01 5.02 5.03 6.28 5.03 1.26 28.9 26.77 59.68 37.26 30.77 10.48 64.33 10.48 84.3 7.34 1.58-.25 3.14-.56 4.7-.91 7.1-1.06 14.2-2.59 18.99-4.7 9.03-3.41 16.63-7.19 19.7-8.78.94.26 1.82.63 2.66 1.06 1.21 1.8 3.17 4.57 5.12 6.66 4.38 4.7 12.04 4.93 17.89 2.28 4.43-1.99 10.88-9.62 12.43-14.5 1.25-3.93 1.3-2.95-.51-5.93-.3-.51-8.6-5.09-8.47-5.17 8.26-8.8 19.73-23 19.73-23 5.96 9.16 17.06 27.21 24.78 27.52 9.94.4 10.91-10.71 9.19-17.78-6.83-27.98-12.9-45.93.3-73.03 2.71-5.56 4.74-13.66-.62-16.78z"/>
    <path id="cDV9XwlHr" d="M107.22 15.85c11.18-10.43 29.73-12.12 44.17-9.48 15.78 2.89 30.6 12.23 34.76 28.42.78 3.02 5.47 1.74 4.69-1.29-8.81-34.24-62.53-43.96-87.06-21.08-2.29 2.14 1.15 5.56 3.44 3.43"/>
    <path id="aVfGUDkRS" d="M127.85 188.8c-4.25-11.41-15.66-20.39-24.33-28.43-.73-.68-2.11-.23-2.07.86.22 5.56.44 11.11.67 16.66.28 6.84.08 14.14 3.85 20.16 3.27 5.23 10.09 8.78 16.16 6.18 6.06-2.61 7.1-9.68 5.72-15.43-.36-1.52-2.7-.88-2.34.65 1.26 5.25.09 10.93-5.67 12.99-4.73 1.69-10.2-2.68-12.3-6.46-2.71-4.85-2.68-10.59-2.9-15.98-.27-6.26-.51-12.51-.76-18.77-.69.29-1.38.57-2.08.86 8.21 7.62 19.71 16.62 23.71 27.36.54 1.45 2.89.82 2.34-.65"/>
    <path id="f5zAeqRE2y" d="M82.54 65.25c20.82 25.51 16.72 62.55-8.84 83.13-1.22.98.51 2.69 1.72 1.72 26.68-21.48 30.44-60.11 8.84-86.57-.99-1.21-2.7.52-1.72 1.72"/>
    <path id="aJ1GsMSi" d="M46.39 69.75c3.59-.82 7.47 1.07 8.9 4.5.59 1.42 2.94.8 2.34-.65-1.95-4.69-6.89-7.34-11.88-6.19-1.53.35-.88 2.69.64 2.34"/>
    <path id="augkFL6W" d="M129.2 19.01c6.45-3.96 11.86-9.32 18.31-13.28 1.77-1.09.14-3.89-1.64-2.8-6.44 3.97-11.86 9.32-18.3 13.28-1.77 1.09-.15 3.9 1.63 2.8"/>
    <path id="b3QFyZDwDL" d="M154.03 25.49c5.99-3.73 10.17-9.56 16.15-13.28 1.76-1.1.14-3.9-1.64-2.8-5.99 3.73-10.16 9.56-16.14 13.28-1.77 1.1-.14 3.9 1.63 2.8"/>
    <path id="dVm3FIinS" d="M51.85 82.62c-.95-1.58-2.68-2.87-5.07-3.85-5.58-2.3-13.17 1.75-14.13 9.55-.34 2.77.83 5.6 2.62 7.45 2.63 2.72 6.11 3.74 9.68 2.32 1.95-.78 3.93-1.77 5.23-3.45 2.99-3.89 4.37-7.59 1.67-12.02"/>
    <path id="a6pHhzMYCp" d="M198.49 171.99c4.55 8.83 15.43 10.29 23.18 4.48 2.5-1.88 7.7-7.29 6.62-10.98-.86-2.94-6.13-4.52-8.25-6.37-1.22-1.06-3.01.71-1.79 1.78 1.72 1.5 3.79 2.44 5.56 3.82 1.16.91 1.59.55 1.79 1.87.26 1.68-2.37 4.98-3.26 5.94-6.29 6.76-17.23 6.83-21.67-1.81-.75-1.44-2.92-.17-2.18 1.27"/>
    <path id="j4aZopyk7" d="M263.85 92.61c2.03-6.53 4.8-12.74 7.02-19.19 1.01-2.92 3.04-8.32.12-10.85-6.88-5.95-19.18 10.93-22.21 15.31-5 7.26-9.76 15.61-10.49 24.56-.67 8.33 1.94 16.57 5.5 24 1.97 4.11 18.35 35.08 25.4 26.75 1.93-2.27 1.49-7.43 1.41-10.06-.14-4.71-1.05-9.36-2.15-13.92-2.92-12.1-7.59-24.02-4.6-36.6.37-1.57-2.05-2.24-2.43-.66-3.97 16.68 4.9 31.72 6.46 48.04.2 2.08.29 4.19.19 6.28.93 3.57-.09 4.78-3.06 3.63-1.82.48-3.1-.08-3.84-1.67-3.3-2.75-5.89-7.52-8.28-11.09-4.97-7.41-9.39-15.53-11.31-24.31-3.58-16.43 6.76-33.9 18.93-44.54 2.33-2.03 8.32-6.85 9.39-1.46.43 2.19-1.45 5.95-2.19 7.91-2.17 5.72-4.47 11.35-6.29 17.21-.48 1.55 1.95 2.21 2.43.66"/>
    <path id="a1VhuOwUIF" d="M141.97 182.53c24.7-.34 49.42-12.27 68.4-27.51 7.7-6.18 15.7-13.69 19.68-22.94 3.65-8.47.54-19.53.93-28.58.28-6.32 1.45-13.29.6-19.55-.76-5.58-6.22-10.96-9.64-15.21a142.751 142.751 0 00-30.74-28.29c-17.24-11.7-38.12-20.79-59.25-21.14-26.3-.43-49.41 5.71-69.82 22.41-1.26 1.02.53 2.8 1.78 1.78 32.92-26.93 78.63-27.76 115.19-7.53a138.889 138.889 0 0130.01 22.39c4.38 4.29 8.47 8.87 12.25 13.7 2.09 2.67 4.6 5.52 6.19 8.54 2.35 4.48 1.45 9.26 1.26 14.03-.41 10.1.35 20.05.16 30.11-.17 9.2-7.65 16.98-13.98 22.95-19.02 17.95-46.53 31.95-73.02 32.32-1.62.02-1.63 2.54 0 2.52"/>
    <path id="a5HK4c3zzJ" d="M124.48 54.62c2.53 2.17 5.31 5.89 1.41 8.45-1.3.86-.08 2.96 1.23 2.1 1.99-1.31 3.22-3.41 3.15-5.84-.09-2.77-2.1-4.73-4.07-6.42-1.18-1.02-2.91.69-1.72 1.71"/>
    <path id="g1Wk79UCga" d="M127.4 142.17c3.42 1.86 3.69 6.07.7 8.52-1.21.99.51 2.7 1.72 1.71 4.18-3.41 3.51-9.76-1.19-12.33-1.37-.75-2.6 1.35-1.23 2.1"/>
    <path id="b19qpnJpYe" d="M112.62 43.38c2.5 2.03 2.91 5.85.66 8.24-1.08 1.13.64 2.85 1.72 1.71 3.09-3.27 2.89-8.79-.66-11.66-1.21-.98-2.94.73-1.72 1.71"/>
    <path id="c1e9NrGP9f" d="M198.45 101.05c1.68.67 2.33 2.68 2.32 4.34-.02 1.98-1.48 3.48-2.85 4.73-1.16 1.06.56 2.77 1.72 1.72 2.15-1.96 3.81-4.29 3.5-7.31-.26-2.61-1.56-4.83-4.04-5.82-1.45-.58-2.08 1.77-.65 2.34"/>
    <path id="b2nIh3xrrw" d="M163.76 119.2c-9.22 12.41-26.84 12.68-37.68 2.49-2.26-2.13-4.57-4.34-6.64-6.64-6.36-7.07-5.35-15.91.91-22.53 8.14-8.61 17.44-15.62 30.05-12.31 17.2 4.53 22.98 24.95 13.36 38.99-.88 1.29 1.22 2.51 2.1 1.23 7.68-11.23 6.87-26.41-3.18-35.98-9.01-8.59-23.3-9.98-33.74-3.12-7.65 5.02-16.85 14.09-16.36 23.81.47 9.17 10.2 18.61 17.85 22.92 11.92 6.72 27.31 3.3 35.43-7.63.93-1.26-1.18-2.47-2.1-1.23"/>
    <path id="cJ4a1RSi6" d="M44.17 85.89c-.41-.69-1.17-1.26-2.21-1.69-2.44-1-5.76.77-6.18 4.18-.15 1.21.36 2.45 1.14 3.26 1.16 1.19 2.68 1.63 4.24 1.01.85-.34 1.72-.77 2.28-1.51 1.31-1.7 1.91-3.31.73-5.25"/>
    <path id="ddlD3XHz" d="M41.96 84.2c-2.44-1-5.76.77-6.18 4.18-.15 1.21.36 2.45 1.14 3.26 1.16 1.19 2.68 1.63 4.24 1.01.85-.34 1.72-.77 2.28-1.51 1.31-1.7 1.91-3.31.73-5.25-.41-.69-1.17-1.26-2.21-1.69z"/>
  </defs>
  <use fill="#dba813" xlink:href="#h3N86MrFj"/>
  <use fill-opacity="0" stroke="#000" stroke-opacity="0" xlink:href="#h3N86MrFj"/>
  <use fill="#dba813" xlink:href="#h2dXxjW83a"/>
  <use fill-opacity="0" stroke="#000" stroke-opacity="0" xlink:href="#h2dXxjW83a"/>
  <use fill="#dba813" xlink:href="#aSzjulU7j"/>
  <use fill-opacity="0" stroke="#000" stroke-opacity="0" xlink:href="#aSzjulU7j"/>
  <use fill-opacity="0" xlink:href="#bdTdUdNZP"/>
  <use fill-opacity="0" stroke="#dba813" stroke-width="1.06" xlink:href="#bdTdUdNZP"/>
  <use fill="#dba813" xlink:href="#cDV9XwlHr"/>
  <use fill-opacity="0" stroke="#000" stroke-opacity="0" xlink:href="#cDV9XwlHr"/>
  <use fill="#fff" xlink:href="#aVfGUDkRS"/>
  <use fill-opacity="0" stroke="#000" stroke-opacity="0" xlink:href="#aVfGUDkRS"/>
  <use fill="#fff" xlink:href="#f5zAeqRE2y"/>
  <use fill-opacity="0" stroke="#000" stroke-opacity="0" xlink:href="#f5zAeqRE2y"/>
  <use fill="#fff" xlink:href="#aJ1GsMSi"/>
  <use fill-opacity="0" stroke="#000" stroke-opacity="0" xlink:href="#aJ1GsMSi"/>
  <use fill="#dba813" xlink:href="#augkFL6W"/>
  <use fill-opacity="0" stroke="#000" stroke-opacity="0" xlink:href="#augkFL6W"/>
  <use fill="#dba813" xlink:href="#b3QFyZDwDL"/>
  <use fill-opacity="0" stroke="#000" stroke-opacity="0" xlink:href="#b3QFyZDwDL"/>
  <use fill="#fff" xlink:href="#dVm3FIinS"/>
  <use fill-opacity="0" stroke="#000" stroke-opacity="0" xlink:href="#dVm3FIinS"/>
  <g>
    <use fill="#fff" xlink:href="#a6pHhzMYCp"/>
    <use fill-opacity="0" stroke="#000" stroke-opacity="0" xlink:href="#a6pHhzMYCp"/>
  </g>
  <g>
    <use fill="#fff" xlink:href="#j4aZopyk7"/>
    <use fill-opacity="0" stroke="#000" stroke-opacity="0" xlink:href="#j4aZopyk7"/>
  </g>
  <g>
    <use fill="#fff" xlink:href="#a1VhuOwUIF"/>
    <use fill-opacity="0" stroke="#000" stroke-opacity="0" xlink:href="#a1VhuOwUIF"/>
  </g>
  <g>
    <use fill="#fff" xlink:href="#a5HK4c3zzJ"/>
    <use fill-opacity="0" stroke="#000" stroke-opacity="0" xlink:href="#a5HK4c3zzJ"/>
  </g>
  <g>
    <use fill="#fff" xlink:href="#g1Wk79UCga"/>
    <use fill-opacity="0" stroke="#000" stroke-opacity="0" xlink:href="#g1Wk79UCga"/>
  </g>
  <g>
    <use fill="#fff" xlink:href="#b19qpnJpYe"/>
    <use fill-opacity="0" stroke="#000" stroke-opacity="0" xlink:href="#b19qpnJpYe"/>
  </g>
  <g>
    <use fill="#fff" xlink:href="#c1e9NrGP9f"/>
    <use fill-opacity="0" stroke="#000" stroke-opacity="0" xlink:href="#c1e9NrGP9f"/>
  </g>
  <g>
    <use fill="#fff" xlink:href="#b2nIh3xrrw"/>
    <use fill-opacity="0" stroke="#000" stroke-opacity="0" xlink:href="#b2nIh3xrrw"/>
  </g>
  <g class="eye">
    <use fill="#dba813" xlink:href="#cJ4a1RSi6"/>
    <use fill-opacity="0" stroke="#000" stroke-opacity="0" xlink:href="#cJ4a1RSi6"/>
  </g>
</svg>
